# Rhino

mtllib Building_1.mtl
usemtl diffuse_Black
v 3.5 5 -0.25
v 3.5 2.5 -0.25
v 3.5 0 -0.25
v 3.5 0 -1.625
v 3.5 0 -3
v 3.5 2.5 -1.625
v 2.5 5 -0.25
v 2.5 2.5 -0.25
v 2.5 0 -0.25
v 2.5 0 -1.625
v 2.5 0 -3
v 2.5 2.5 -1.625
v 2.5 5 -0.25
v 3.5 5 -0.25
v 2.5 0 -0.25
v 3.5 0 -0.25
v 3.5 2.5 -0.25
v 2.5 2.5 -0.25
v 2.5 0 -0.25
v 3.5 0 -0.25
v 2.5 0 -3
v 3.5 0 -3
v 3.5 0 -1.625
v 2.5 0 -1.625
v 2.5 0 -3
v 3.5 0 -3
v 2.5 5 -0.25
v 3.5 5 -0.25
v 3.5 2.5 -1.625
v 2.5 2.5 -1.625
vt 0.39892929792404175 0.99150723218917847
vt 0.39892929792404175 0.64011263847351074
vt 0.39892929792404175 0.28871804475784302
vt 0.59187322854995728 0.28871804475784302
vt 0.78481709957122803 0.28871804475784302
vt 0.59187322854995728 0.64011263847351074
vt 0.0038588782772421837 0.99150723218917847
vt 0.0038588782772421837 0.64011263847351074
vt 0.0038588782772421837 0.28871804475784302
vt 0.19680279493331909 0.28871804475784302
vt 0.38974669575691223 0.28871804475784302
vt 0.19680279493331909 0.64011263847351074
vt 0 0.14084507524967194
vt 0 0.28022530674934387
vt 0.70422536134719849 0.14084507524967194
vt 0.70422536134719849 0.28022530674934387
vt 0.35211268067359924 0.28022530674934387
vt 0.35211268067359924 0.14084507524967194
vt 0 0
vt 0 0.13938023149967194
vt 0.38732394576072693 0
vt 0.38732394576072693 0.13938023149967194
vt 0.19366197288036346 0.13938023149967194
vt 0.19366197288036346 0
vt 0.92952108383178711 0
vt 0.79014086723327637 0
vt 0.92952108383178711 0.80371212959289551
vt 0.79014086723327637 0.80371212959289551
vt 0.79014086723327637 0.40185606479644775
vt 0.92952108383178711 0.40185606479644775
vn 1 0 0
vn 1 0 0
vn 1 0 0
vn 1 0 0
vn 1 0 0
vn 1 0 0
vn -1 0 0
vn -1 0 0
vn -1 0 0
vn -1 0 0
vn -1 0 0
vn -1 0 0
vn 0 0 1
vn 0 0 1
vn 0 0 1
vn 0 0 1
vn 0 0 1
vn 0 0 1
vn 0 -1 0
vn 0 -1 0
vn 0 -1 0
vn 0 -1 0
vn 0 -1 0
vn 0 -1 0
vn 0 0.48191875219345093 -0.87621593475341797
vn 0 0.48191875219345093 -0.87621593475341797
vn 0 0.48191875219345093 -0.87621593475341797
vn 0 0.48191875219345093 -0.87621593475341797
vn 0 0.48191875219345093 -0.87621593475341797
vn 0 0.48191875219345093 -0.87621593475341797
f 2/2/2 3/3/3 4/4/4 5/5/5 6/6/6 1/1/1
f 10/10/10 9/9/9 8/8/8 7/7/7 12/12/12 11/11/11
f 14/14/14 13/13/13 18/18/18 15/15/15 16/16/16 17/17/17
f 20/20/20 19/19/19 24/24/24 21/21/21 22/22/22 23/23/23
f 26/26/26 25/25/25 30/30/30 27/27/27 28/28/28 29/29/29
usemtl diffuse_Black
v 0 10 -0.25
v 0 0 -0.25
v 6 10 -0.25
v 6 0 -0.25
v 0 1 -0.25
v 0 2 -0.25
v 0 3 -0.25
v 0 4 -0.25
v 0 5 -0.25
v 0 6 -0.25
v 0 7 -0.25
v 0 8 -0.25
v 0 9 -0.25
v 6 5 -0.25
v 3 0 -0.25
v 3 10 -0.25
v 3 5 -0.25
v 3 2.5 -0.25
v 1.5 5 -0.25
v 1.5 2.5 -0.25
v 3 7.5 -0.25
v 1.5 7.5 -0.25
v 1 10 -0.25
v 2 10 -0.25
v 4 10 -0.25
v 5 10 -0.25
v 4.5 5 -0.25
v 4.5 7.5 -0.25
v 6 9 -0.25
v 6 8 -0.25
v 6 7 -0.25
v 6 6 -0.25
v 6 4 -0.25
v 6 3 -0.25
v 6 2 -0.25
v 6 1 -0.25
v 4.5 2.5 -0.25
v 5 0 -0.25
v 4 0 -0.25
v 2 0 -0.25
v 1 0 -0.25
v 0 10 0
v 0 0 0
v 6 10 0
v 6 0 0
v 0 1 0
v 0 2 0
v 0 3 0
v 0 4 0
v 0 5 0
v 0 6 0
v 0 7 0
v 0 8 0
v 0 9 0
v 6 5 0
v 3 0 0
v 3 10 0
v 3 5 0
v 3 2.5 0
v 1.5 5 0
v 1.5 2.5 0
v 3 7.5 0
v 1.5 7.5 0
v 1 10 0
v 2 10 0
v 4 10 0
v 5 10 0
v 4.5 5 0
v 4.5 7.5 0
v 6 9 0
v 6 8 0
v 6 7 0
v 6 6 0
v 6 4 0
v 6 3 0
v 6 2 0
v 6 1 0
v 4.5 2.5 0
v 5 0 0
v 4 0 0
v 2 0 0
v 1 0 0
v 0 0 0
v 0 0 -0.25
v 0 10 0
v 0 10 -0.25
v 0 9 -0.25
v 0 8 -0.25
v 0 7 -0.25
v 0 6 -0.25
v 0 5 -0.25
v 0 4 -0.25
v 0 3 -0.25
v 0 2 -0.25
v 0 1 -0.25
v 0 1 0
v 0 2 0
v 0 3 0
v 0 4 0
v 0 5 0
v 0 6 0
v 0 7 0
v 0 8 0
v 0 9 0
v 0 10 0
v 0 10 -0.25
v 3 10 0
v 3 10 -0.25
v 6 10 0
v 6 10 -0.25
v 5 10 -0.25
v 4 10 -0.25
v 2 10 -0.25
v 1 10 -0.25
v 1 10 0
v 2 10 0
v 4 10 0
v 5 10 0
v 6 10 0
v 6 10 -0.25
v 6 0 0
v 6 0 -0.25
v 6 1 -0.25
v 6 2 -0.25
v 6 3 -0.25
v 6 4 -0.25
v 6 5 -0.25
v 6 6 -0.25
v 6 7 -0.25
v 6 8 -0.25
v 6 9 -0.25
v 6 9 0
v 6 8 0
v 6 7 0
v 6 6 0
v 6 5 0
v 6 4 0
v 6 3 0
v 6 2 0
v 6 1 0
v 6 0 0
v 6 0 -0.25
v 3 0 0
v 3 0 -0.25
v 0 0 0
v 0 0 -0.25
v 1 0 -0.25
v 2 0 -0.25
v 4 0 -0.25
v 5 0 -0.25
v 5 0 0
v 4 0 0
v 2 0 0
v 1 0 0
vt 0.91520184278488159 0.5
vt 0.083333335816860199 0.5
vt 0.91520184278488159 0.99853515625
vt 0.083333335816860199 0.99853515625
vt 0.16652020812034607 0.5
vt 0.24970702826976776 0.5
vt 0.33289387822151184 0.5
vt 0.41608071327209473 0.5
vt 0.499267578125 0.5
vt 0.58245444297790527 0.5
vt 0.66564124822616577 0.5
vt 0.74882811307907104 0.5
vt 0.83201497793197632 0.5
vt 0.499267578125 0.99853515625
vt 0.083333335816860199 0.749267578125
vt 0.91520184278488159 0.749267578125
vt 0.499267578125 0.749267578125
vt 0.2913004457950592 0.749267578125
vt 0.499267578125 0.6246337890625
vt 0.2913004457950592 0.6246337890625
vt 0.70723468065261841 0.749267578125
vt 0.70723468065261841 0.6246337890625
vt 0.91520184278488159 0.58308917284011841
vt 0.91520184278488159 0.66617840528488159
vt 0.91520184278488159 0.83235675096511841
vt 0.91520184278488159 0.91544598340988159
vt 0.499267578125 0.8739013671875
vt 0.70723468065261841 0.8739013671875
vt 0.83201497793197632 0.99853515625
vt 0.74882811307907104 0.99853515625
vt 0.66564124822616577 0.99853515625
vt 0.58245444297790527 0.99853515625
vt 0.41608071327209473 0.99853515625
vt 0.33289387822151184 0.99853515625
vt 0.24970702826976776 0.99853515625
vt 0.16652020812034607 0.99853515625
vt 0.2913004457950592 0.8739013671875
vt 0.083333335816860199 0.91544598340988159
vt 0.083333335816860199 0.83235675096511841
vt 0.083333335816860199 0.66617840528488159
vt 0.083333335816860199 0.58308917284011841
vt 0.91520184278488159 0
vt 0.083333335816860199 0
vt 0.91520184278488159 0.49853515625
vt 0.083333335816860199 0.49853515625
vt 0.16652020812034607 0
vt 0.24970702826976776 0
vt 0.33289387822151184 0
vt 0.41608071327209473 0
vt 0.499267578125 0
vt 0.58245444297790527 0
vt 0.66564124822616577 0
vt 0.74882811307907104 0
vt 0.83201497793197632 0
vt 0.499267578125 0.49853515625
vt 0.083333335816860199 0.249267578125
vt 0.91520184278488159 0.249267578125
vt 0.499267578125 0.249267578125
vt 0.2913004457950592 0.249267578125
vt 0.499267578125 0.1246337890625
vt 0.2913004457950592 0.1246337890625
vt 0.70723468065261841 0.249267578125
vt 0.70723468065261841 0.1246337890625
vt 0.91520184278488159 0.083089195191860199
vt 0.91520184278488159 0.1661783903837204
vt 0.91520184278488159 0.3323567807674408
vt 0.91520184278488159 0.4154459536075592
vt 0.499267578125 0.3739013671875
vt 0.70723468065261841 0.3739013671875
vt 0.83201497793197632 0.49853515625
vt 0.74882811307907104 0.49853515625
vt 0.66564124822616577 0.49853515625
vt 0.58245444297790527 0.49853515625
vt 0.41608071327209473 0.49853515625
vt 0.33289387822151184 0.49853515625
vt 0.24970702826976776 0.49853515625
vt 0.16652020812034607 0.49853515625
vt 0.2913004457950592 0.3739013671875
vt 0.083333335816860199 0.4154459536075592
vt 0.083333335816860199 0.3323567807674408
vt 0.083333335816860199 0.1661783903837204
vt 0.083333335816860199 0.083089195191860199
vt 0.081868492066860199 0
vt 0.0625 0
vt 0.081868492066860199 0.83333331346511841
vt 0.0625 0.83333331346511841
vt 0.0625 0.75
vt 0.0625 0.66666668653488159
vt 0.0625 0.58333331346511841
vt 0.0625 0.5
vt 0.0625 0.4166666567325592
vt 0.0625 0.3333333432674408
vt 0.0625 0.25
vt 0.0625 0.1666666716337204
vt 0.0625 0.083333335816860199
vt 0.081868492066860199 0.083333335816860199
vt 0.081868492066860199 0.1666666716337204
vt 0.081868492066860199 0.25
vt 0.081868492066860199 0.3333333432674408
vt 0.081868492066860199 0.4166666567325592
vt 0.081868492066860199 0.5
vt 0.081868492066860199 0.58333331346511841
vt 0.081868492066860199 0.66666668653488159
vt 0.081868492066860199 0.75
vt 0.040201824158430099 0
vt 0.02083333395421505 0
vt 0.040201824158430099 0.25
vt 0.02083333395421505 0.25
vt 0.040201824158430099 0.5
vt 0.02083333395421505 0.5
vt 0.02083333395421505 0.4166666567325592
vt 0.02083333395421505 0.3333333432674408
vt 0.02083333395421505 0.1666666716337204
vt 0.02083333395421505 0.083333335816860199
vt 0.040201824158430099 0.083333335816860199
vt 0.040201824158430099 0.1666666716337204
vt 0.040201824158430099 0.3333333432674408
vt 0.040201824158430099 0.4166666567325592
vt 0.06103515625 0
vt 0.041666667908430099 0
vt 0.06103515625 0.83333331346511841
vt 0.041666667908430099 0.83333331346511841
vt 0.041666667908430099 0.75
vt 0.041666667908430099 0.66666668653488159
vt 0.041666667908430099 0.58333331346511841
vt 0.041666667908430099 0.5
vt 0.041666667908430099 0.4166666567325592
vt 0.041666667908430099 0.3333333432674408
vt 0.041666667908430099 0.25
vt 0.041666667908430099 0.1666666716337204
vt 0.041666667908430099 0.083333335816860199
vt 0.06103515625 0.083333335816860199
vt 0.06103515625 0.1666666716337204
vt 0.06103515625 0.25
vt 0.06103515625 0.3333333432674408
vt 0.06103515625 0.4166666567325592
vt 0.06103515625 0.5
vt 0.06103515625 0.58333331346511841
vt 0.06103515625 0.66666668653488159
vt 0.06103515625 0.75
vt 0.01936849020421505 0
vt 0 0
vt 0.01936849020421505 0.25
vt 0 0.25
vt 0.01936849020421505 0.5
vt 0 0.5
vt 0 0.4166666567325592
vt 0 0.3333333432674408
vt 0 0.1666666716337204
vt 0 0.083333335816860199
vt 0.01936849020421505 0.083333335816860199
vt 0.01936849020421505 0.1666666716337204
vt 0.01936849020421505 0.3333333432674408
vt 0.01936849020421505 0.4166666567325592
vn 0 0 -1
vn 0 0 -1
vn 0 0 -1
vn 0 0 -1
vn 0 0 -1
vn 0 0 -1
vn 0 0 -1
vn 0 0 -1
vn 0 0 -1
vn 0 0 -1
vn 0 0 -1
vn 0 0 -1
vn 0 0 -1
vn 0 0 -1
vn 0 0 -1
vn 0 0 -1
vn 0 0 -1
vn 0 0 -1
vn 0 0 -1
vn 0 0 -1
vn 0 0 -1
vn 0 0 -1
vn 0 0 -1
vn 0 0 -1
vn 0 0 -1
vn 0 0 -1
vn 0 0 -1
vn 0 0 -1
vn 0 0 -1
vn 0 0 -1
vn 0 0 -1
vn 0 0 -1
vn 0 0 -1
vn 0 0 -1
vn 0 0 -1
vn 0 0 -1
vn 0 0 -1
vn 0 0 -1
vn 0 0 -1
vn 0 0 -1
vn 0 0 -1
vn 0 0 1
vn 0 0 1
vn 0 0 1
vn 0 0 1
vn 0 0 1
vn 0 0 1
vn 0 0 1
vn 0 0 1
vn 0 0 1
vn 0 0 1
vn 0 0 1
vn 0 0 1
vn 0 0 1
vn 0 0 1
vn 0 0 1
vn 0 0 1
vn 0 0 1
vn 0 0 1
vn 0 0 1
vn 0 0 1
vn 0 0 1
vn 0 0 1
vn 0 0 1
vn 0 0 1
vn 0 0 1
vn 0 0 1
vn 0 0 1
vn 0 0 1
vn 0 0 1
vn 0 0 1
vn 0 0 1
vn 0 0 1
vn 0 0 1
vn 0 0 1
vn 0 0 1
vn 0 0 1
vn 0 0 1
vn 0 0 1
vn 0 0 1
vn 0 0 1
vn 0 0 1
vn -1 0 0
vn -1 0 0
vn -1 0 0
vn -1 0 0
vn -1 0 0
vn -1 0 0
vn -1 0 0
vn -1 0 0
vn -1 0 0
vn -1 0 0
vn -1 0 0
vn -1 0 0
vn -1 0 0
vn -1 0 0
vn -1 0 0
vn -1 0 0
vn -1 0 0
vn -1 0 0
vn -1 0 0
vn -1 0 0
vn -1 0 0
vn -1 0 0
vn 0 1 0
vn 0 1 0
vn 0 1 0
vn 0 1 0
vn 0 1 0
vn 0 1 0
vn 0 1 0
vn 0 1 0
vn 0 1 0
vn 0 1 0
vn 0 1 0
vn 0 1 0
vn 0 1 0
vn 0 1 0
vn 1 0 0
vn 1 0 0
vn 1 0 0
vn 1 0 0
vn 1 0 0
vn 1 0 0
vn 1 0 0
vn 1 0 0
vn 1 0 0
vn 1 0 0
vn 1 0 0
vn 1 0 0
vn 1 0 0
vn 1 0 0
vn 1 0 0
vn 1 0 0
vn 1 0 0
vn 1 0 0
vn 1 0 0
vn 1 0 0
vn 1 0 0
vn 1 0 0
vn 0 -1 0
vn 0 -1 0
vn 0 -1 0
vn 0 -1 0
vn 0 -1 0
vn 0 -1 0
vn 0 -1 0
vn 0 -1 0
vn 0 -1 0
vn 0 -1 0
vn 0 -1 0
vn 0 -1 0
vn 0 -1 0
vn 0 -1 0
f 69/69/69 45/45/45 70/70/70 71/71/71 32/32/32 35/35/35 36/36/36 37/37/37 38/38/38 39/39/39 40/40/40 41/41/41 42/42/42 43/43/43 31/31/31 53/53/53 54/54/54 46/46/46 55/55/55 56/56/56 33/33/33 59/59/59 60/60/60 61/61/61 62/62/62 44/44/44 63/63/63 64/64/64 65/65/65 66/66/66 34/34/34 68/68/68
f 86/86/86 110/110/110 109/109/109 75/75/75 107/107/107 106/106/106 105/105/105 104/104/104 85/85/85 103/103/103 102/102/102 101/101/101 100/100/100 74/74/74 97/97/97 96/96/96 87/87/87 95/95/95 94/94/94 72/72/72 84/84/84 83/83/83 82/82/82 81/81/81 80/80/80 79/79/79 78/78/78 77/77/77 76/76/76 73/73/73 112/112/112 111/111/111
f 125/125/125 114/114/114 113/113/113 126/126/126 127/127/127 128/128/128 129/129/129 130/130/130 131/131/131 132/132/132 133/133/133 134/134/134 115/115/115 116/116/116 117/117/117 118/118/118 119/119/119 120/120/120 121/121/121 122/122/122 123/123/123 124/124/124
f 135/135/135 145/145/145 146/146/146 137/137/137 147/147/147 148/148/148 139/139/139 140/140/140 141/141/141 142/142/142 138/138/138 143/143/143 144/144/144 136/136/136
f 161/161/161 150/150/150 149/149/149 162/162/162 163/163/163 164/164/164 165/165/165 166/166/166 167/167/167 168/168/168 169/169/169 170/170/170 151/151/151 152/152/152 153/153/153 154/154/154 155/155/155 156/156/156 157/157/157 158/158/158 159/159/159 160/160/160
f 180/180/180 172/172/172 171/171/171 181/181/181 182/182/182 173/173/173 183/183/183 184/184/184 175/175/175 176/176/176 177/177/177 178/178/178 174/174/174 179/179/179
