# Rhino

mtllib Building_2.mtl
usemtl diffuse_Black
v 13.5 5 -0.25
v 13.5 2.5 -0.25
v 13.5 0 -0.25
v 13.5 0 -1.625
v 13.5 0 -3
v 13.5 2.5 -1.625
v 12.5 5 -0.25
v 12.5 2.5 -0.25
v 12.5 0 -0.25
v 12.5 0 -1.625
v 12.5 0 -3
v 12.5 2.5 -1.625
v 12.5 5 -0.25
v 13.5 5 -0.25
v 12.5 0 -0.25
v 13.5 0 -0.25
v 13.5 2.5 -0.25
v 12.5 2.5 -0.25
v 12.5 0 -0.25
v 13.5 0 -0.25
v 12.5 0 -3
v 13.5 0 -3
v 13.5 0 -1.625
v 12.5 0 -1.625
v 12.5 0 -3
v 13.5 0 -3
v 12.5 5 -0.25
v 13.5 5 -0.25
v 13.5 2.5 -1.625
v 12.5 2.5 -1.625
vt 0.39892929792404175 0.99150723218917847
vt 0.39892929792404175 0.64011263847351074
vt 0.39892929792404175 0.28871804475784302
vt 0.59187322854995728 0.28871804475784302
vt 0.78481709957122803 0.28871804475784302
vt 0.59187322854995728 0.64011263847351074
vt 0.0038588782772421837 0.99150723218917847
vt 0.0038588782772421837 0.64011263847351074
vt 0.0038588782772421837 0.28871804475784302
vt 0.19680279493331909 0.28871804475784302
vt 0.38974669575691223 0.28871804475784302
vt 0.19680279493331909 0.64011263847351074
vt 0 0.14084507524967194
vt 0 0.28022530674934387
vt 0.70422536134719849 0.14084507524967194
vt 0.70422536134719849 0.28022530674934387
vt 0.35211268067359924 0.28022530674934387
vt 0.35211268067359924 0.14084507524967194
vt 0 0
vt 0 0.13938023149967194
vt 0.38732394576072693 0
vt 0.38732394576072693 0.13938023149967194
vt 0.19366197288036346 0.13938023149967194
vt 0.19366197288036346 0
vt 0.92952108383178711 0
vt 0.79014086723327637 0
vt 0.92952108383178711 0.80371212959289551
vt 0.79014086723327637 0.80371212959289551
vt 0.79014086723327637 0.40185606479644775
vt 0.92952108383178711 0.40185606479644775
vn 1 0 0
vn 1 0 0
vn 1 0 0
vn 1 0 0
vn 1 0 0
vn 1 0 0
vn -1 0 0
vn -1 0 0
vn -1 0 0
vn -1 0 0
vn -1 0 0
vn -1 0 0
vn 0 0 1
vn 0 0 1
vn 0 0 1
vn 0 0 1
vn 0 0 1
vn 0 0 1
vn 0 -1 0
vn 0 -1 0
vn 0 -1 0
vn 0 -1 0
vn 0 -1 0
vn 0 -1 0
vn 0 0.48191875219345093 -0.87621593475341797
vn 0 0.48191875219345093 -0.87621593475341797
vn 0 0.48191875219345093 -0.87621593475341797
vn 0 0.48191875219345093 -0.87621593475341797
vn 0 0.48191875219345093 -0.87621593475341797
vn 0 0.48191875219345093 -0.87621593475341797
f 2/2/2 3/3/3 4/4/4 5/5/5 6/6/6 1/1/1
f 10/10/10 9/9/9 8/8/8 7/7/7 12/12/12 11/11/11
f 14/14/14 13/13/13 18/18/18 15/15/15 16/16/16 17/17/17
f 20/20/20 19/19/19 24/24/24 21/21/21 22/22/22 23/23/23
f 26/26/26 25/25/25 30/30/30 27/27/27 28/28/28 29/29/29
usemtl diffuse_Black
v 10 13 -0.25
v 10 0 -0.25
v 16 13 -0.25
v 16 0 -0.25
v 10 1 -0.25
v 10 2 -0.25
v 10 3 -0.25
v 10 4 -0.25
v 10 5 -0.25
v 10 6 -0.25
v 10 7 -0.25
v 10 8 -0.25
v 10 9 -0.25
v 10 10 -0.25
v 10 11 -0.25
v 10 12 -0.25
v 13 0 -0.25
v 13 13 -0.25
v 13 6.5 -0.25
v 13 3.25 -0.25
v 11.5 6.5 -0.25
v 11.5 3.25 -0.25
v 13 9.75 -0.25
v 11.5 9.75 -0.25
v 11 13 -0.25
v 12 13 -0.25
v 14 13 -0.25
v 15 13 -0.25
v 14.5 6.5 -0.25
v 14.5 9.75 -0.25
v 16 12 -0.25
v 16 11 -0.25
v 16 10 -0.25
v 16 9 -0.25
v 16 8 -0.25
v 16 7 -0.25
v 16 6 -0.25
v 16 5 -0.25
v 16 4 -0.25
v 16 3 -0.25
v 16 2 -0.25
v 16 1 -0.25
v 14.5 3.25 -0.25
v 15 0 -0.25
v 14 0 -0.25
v 12 0 -0.25
v 11 0 -0.25
v 10 13 0
v 10 0 0
v 16 13 0
v 16 0 0
v 10 1 0
v 10 2 0
v 10 3 0
v 10 4 0
v 10 5 0
v 10 6 0
v 10 7 0
v 10 8 0
v 10 9 0
v 10 10 0
v 10 11 0
v 10 12 0
v 13 0 0
v 13 13 0
v 13 6.5 0
v 13 3.25 0
v 11.5 6.5 0
v 11.5 3.25 0
v 13 9.75 0
v 11.5 9.75 0
v 11 13 0
v 12 13 0
v 14 13 0
v 15 13 0
v 14.5 6.5 0
v 14.5 9.75 0
v 16 12 0
v 16 11 0
v 16 10 0
v 16 9 0
v 16 8 0
v 16 7 0
v 16 6 0
v 16 5 0
v 16 4 0
v 16 3 0
v 16 2 0
v 16 1 0
v 14.5 3.25 0
v 15 0 0
v 14 0 0
v 12 0 0
v 11 0 0
v 10 0 0
v 10 0 -0.25
v 10 13 0
v 10 13 -0.25
v 10 12 -0.25
v 10 11 -0.25
v 10 10 -0.25
v 10 9 -0.25
v 10 8 -0.25
v 10 7 -0.25
v 10 6 -0.25
v 10 5 -0.25
v 10 4 -0.25
v 10 3 -0.25
v 10 2 -0.25
v 10 1 -0.25
v 10 1 0
v 10 2 0
v 10 3 0
v 10 4 0
v 10 5 0
v 10 6 0
v 10 7 0
v 10 8 0
v 10 9 0
v 10 10 0
v 10 11 0
v 10 12 0
v 10 13 0
v 10 13 -0.25
v 13 13 0
v 13 13 -0.25
v 16 13 0
v 16 13 -0.25
v 15 13 -0.25
v 14 13 -0.25
v 12 13 -0.25
v 11 13 -0.25
v 11 13 0
v 12 13 0
v 14 13 0
v 15 13 0
v 16 13 0
v 16 13 -0.25
v 16 0 0
v 16 0 -0.25
v 16 1 -0.25
v 16 2 -0.25
v 16 3 -0.25
v 16 4 -0.25
v 16 5 -0.25
v 16 6 -0.25
v 16 7 -0.25
v 16 8 -0.25
v 16 9 -0.25
v 16 10 -0.25
v 16 11 -0.25
v 16 12 -0.25
v 16 12 0
v 16 11 0
v 16 10 0
v 16 9 0
v 16 8 0
v 16 7 0
v 16 6 0
v 16 5 0
v 16 4 0
v 16 3 0
v 16 2 0
v 16 1 0
v 16 0 0
v 16 0 -0.25
v 13 0 0
v 13 0 -0.25
v 10 0 0
v 10 0 -0.25
v 11 0 -0.25
v 12 0 -0.25
v 14 0 -0.25
v 15 0 -0.25
v 15 0 0
v 14 0 0
v 12 0 0
v 11 0 0
vt 0.53846156597137451 0
vt 0.53846156597137451 0.99853515625
vt 0.99853515625 0
vt 0.99853515625 0.99853515625
vt 0.53846156597137451 0.92172473669052124
vt 0.53846156597137451 0.84491437673568726
vt 0.53846156597137451 0.7681039571762085
vt 0.53846156597137451 0.69129359722137451
vt 0.53846156597137451 0.61448317766189575
vt 0.53846156597137451 0.53767281770706177
vt 0.53846156597137451 0.46086236834526062
vt 0.53846156597137451 0.38405197858810425
vt 0.53846156597137451 0.30724158883094788
vt 0.53846156597137451 0.23043118417263031
vt 0.53846156597137451 0.15362079441547394
vt 0.53846156597137451 0.076810397207736969
vt 0.76849836111068726 0.99853515625
vt 0.76849836111068726 0
vt 0.76849836111068726 0.499267578125
vt 0.76849836111068726 0.7489013671875
vt 0.6534799337387085 0.499267578125
vt 0.6534799337387085 0.7489013671875
vt 0.76849836111068726 0.2496337890625
vt 0.6534799337387085 0.2496337890625
vt 0.61514049768447876 0
vt 0.69181942939758301 0
vt 0.8451772928237915 0
vt 0.92185622453689575 0
vt 0.88351672887802124 0.499267578125
vt 0.88351672887802124 0.2496337890625
vt 0.99853515625 0.076810397207736969
vt 0.99853515625 0.15362079441547394
vt 0.99853515625 0.23043118417263031
vt 0.99853515625 0.30724158883094788
vt 0.99853515625 0.38405197858810425
vt 0.99853515625 0.46086236834526062
vt 0.99853515625 0.53767281770706177
vt 0.99853515625 0.61448317766189575
vt 0.99853515625 0.69129359722137451
vt 0.99853515625 0.7681039571762085
vt 0.99853515625 0.84491437673568726
vt 0.99853515625 0.92172473669052124
vt 0.88351672887802124 0.7489013671875
vt 0.92185622453689575 0.99853515625
vt 0.8451772928237915 0.99853515625
vt 0.69181942939758301 0.99853515625
vt 0.61514049768447876 0.99853515625
vt 0.076923079788684845 0
vt 0.076923079788684845 0.99853515625
vt 0.53699672222137451 0
vt 0.53699672222137451 0.99853515625
vt 0.076923079788684845 0.92172473669052124
vt 0.076923079788684845 0.84491437673568726
vt 0.076923079788684845 0.7681039571762085
vt 0.076923079788684845 0.69129359722137451
vt 0.076923079788684845 0.61448317766189575
vt 0.076923079788684845 0.53767281770706177
vt 0.076923079788684845 0.46086236834526062
vt 0.076923079788684845 0.38405197858810425
vt 0.076923079788684845 0.30724158883094788
vt 0.076923079788684845 0.23043118417263031
vt 0.076923079788684845 0.15362079441547394
vt 0.076923079788684845 0.076810397207736969
vt 0.30695989727973938 0.99853515625
vt 0.30695989727973938 0
vt 0.30695989727973938 0.499267578125
vt 0.30695989727973938 0.7489013671875
vt 0.19194148480892181 0.499267578125
vt 0.19194148480892181 0.7489013671875
vt 0.30695989727973938 0.2496337890625
vt 0.19194148480892181 0.2496337890625
vt 0.15360201895236969 0
vt 0.23028095066547394 0
vt 0.38363882899284363 0
vt 0.46031776070594788 0
vt 0.42197829484939575 0.499267578125
vt 0.42197829484939575 0.2496337890625
vt 0.53699672222137451 0.076810397207736969
vt 0.53699672222137451 0.15362079441547394
vt 0.53699672222137451 0.23043118417263031
vt 0.53699672222137451 0.30724158883094788
vt 0.53699672222137451 0.38405197858810425
vt 0.53699672222137451 0.46086236834526062
vt 0.53699672222137451 0.53767281770706177
vt 0.53699672222137451 0.61448317766189575
vt 0.53699672222137451 0.69129359722137451
vt 0.53699672222137451 0.7681039571762085
vt 0.53699672222137451 0.84491437673568726
vt 0.53699672222137451 0.92172473669052124
vt 0.42197829484939575 0.7489013671875
vt 0.46031776070594788 0.99853515625
vt 0.38363882899284363 0.99853515625
vt 0.23028095066547394 0.99853515625
vt 0.15360201895236969 0.99853515625
vt 0.075458236038684845 0
vt 0.057692307978868484 0
vt 0.075458236038684845 0.99853515625
vt 0.057692307978868484 0.99853515625
vt 0.057692307978868484 0.92172473669052124
vt 0.057692307978868484 0.84491437673568726
vt 0.057692307978868484 0.7681039571762085
vt 0.057692307978868484 0.69129359722137451
vt 0.057692307978868484 0.61448317766189575
vt 0.057692307978868484 0.53767281770706177
vt 0.057692307978868484 0.46086236834526062
vt 0.057692307978868484 0.38405197858810425
vt 0.057692307978868484 0.30724158883094788
vt 0.057692307978868484 0.23043118417263031
vt 0.057692307978868484 0.15362079441547394
vt 0.057692307978868484 0.076810397207736969
vt 0.075458236038684845 0.076810397207736969
vt 0.075458236038684845 0.15362079441547394
vt 0.075458236038684845 0.23043118417263031
vt 0.075458236038684845 0.30724158883094788
vt 0.075458236038684845 0.38405197858810425
vt 0.075458236038684845 0.46086236834526062
vt 0.075458236038684845 0.53767281770706177
vt 0.075458236038684845 0.61448317766189575
vt 0.075458236038684845 0.69129359722137451
vt 0.075458236038684845 0.7681039571762085
vt 0.075458236038684845 0.84491437673568726
vt 0.075458236038684845 0.92172473669052124
vt 0.036996696144342422 0
vt 0.019230769947171211 0
vt 0.036996696144342422 0.23076923191547394
vt 0.019230769947171211 0.23076923191547394
vt 0.036996696144342422 0.46153846383094788
vt 0.019230769947171211 0.46153846383094788
vt 0.019230769947171211 0.38461536169052124
vt 0.019230769947171211 0.30769231915473938
vt 0.019230769947171211 0.15384615957736969
vt 0.019230769947171211 0.076923079788684845
vt 0.036996696144342422 0.076923079788684845
vt 0.036996696144342422 0.15384615957736969
vt 0.036996696144342422 0.30769231915473938
vt 0.036996696144342422 0.38461536169052124
vt 0.056227464228868484 0
vt 0.038461539894342422 0
vt 0.056227464228868484 0.99853515625
vt 0.038461539894342422 0.99853515625
vt 0.038461539894342422 0.92172473669052124
vt 0.038461539894342422 0.84491437673568726
vt 0.038461539894342422 0.7681039571762085
vt 0.038461539894342422 0.69129359722137451
vt 0.038461539894342422 0.61448317766189575
vt 0.038461539894342422 0.53767281770706177
vt 0.038461539894342422 0.46086236834526062
vt 0.038461539894342422 0.38405197858810425
vt 0.038461539894342422 0.30724158883094788
vt 0.038461539894342422 0.23043118417263031
vt 0.038461539894342422 0.15362079441547394
vt 0.038461539894342422 0.076810397207736969
vt 0.056227464228868484 0.076810397207736969
vt 0.056227464228868484 0.15362079441547394
vt 0.056227464228868484 0.23043118417263031
vt 0.056227464228868484 0.30724158883094788
vt 0.056227464228868484 0.38405197858810425
vt 0.056227464228868484 0.46086236834526062
vt 0.056227464228868484 0.53767281770706177
vt 0.056227464228868484 0.61448317766189575
vt 0.056227464228868484 0.69129359722137451
vt 0.056227464228868484 0.7681039571762085
vt 0.056227464228868484 0.84491437673568726
vt 0.056227464228868484 0.92172473669052124
vt 0.017765926197171211 0
vt 0 0
vt 0.017765926197171211 0.23076923191547394
vt 0 0.23076923191547394
vt 0.017765926197171211 0.46153846383094788
vt 0 0.46153846383094788
vt 0 0.38461536169052124
vt 0 0.30769231915473938
vt 0 0.15384615957736969
vt 0 0.076923079788684845
vt 0.017765926197171211 0.076923079788684845
vt 0.017765926197171211 0.15384615957736969
vt 0.017765926197171211 0.30769231915473938
vt 0.017765926197171211 0.38461536169052124
vn 0 0 -1
vn 0 0 -1
vn 0 0 -1
vn 0 0 -1
vn 0 0 -1
vn 0 0 -1
vn 0 0 -1
vn 0 0 -1
vn 0 0 -1
vn 0 0 -1
vn 0 0 -1
vn 0 0 -1
vn 0 0 -1
vn 0 0 -1
vn 0 0 -1
vn 0 0 -1
vn 0 0 -1
vn 0 0 -1
vn 0 0 -1
vn 0 0 -1
vn 0 0 -1
vn 0 0 -1
vn 0 0 -1
vn 0 0 -1
vn 0 0 -1
vn 0 0 -1
vn 0 0 -1
vn 0 0 -1
vn 0 0 -1
vn 0 0 -1
vn 0 0 -1
vn 0 0 -1
vn 0 0 -1
vn 0 0 -1
vn 0 0 -1
vn 0 0 -1
vn 0 0 -1
vn 0 0 -1
vn 0 0 -1
vn 0 0 -1
vn 0 0 -1
vn 0 0 -1
vn 0 0 -1
vn 0 0 -1
vn 0 0 -1
vn 0 0 -1
vn 0 0 -1
vn 0 0 1
vn 0 0 1
vn 0 0 1
vn 0 0 1
vn 0 0 1
vn 0 0 1
vn 0 0 1
vn 0 0 1
vn 0 0 1
vn 0 0 1
vn 0 0 1
vn 0 0 1
vn 0 0 1
vn 0 0 1
vn 0 0 1
vn 0 0 1
vn 0 0 1
vn 0 0 1
vn 0 0 1
vn 0 0 1
vn 0 0 1
vn 0 0 1
vn 0 0 1
vn 0 0 1
vn 0 0 1
vn 0 0 1
vn 0 0 1
vn 0 0 1
vn 0 0 1
vn 0 0 1
vn 0 0 1
vn 0 0 1
vn 0 0 1
vn 0 0 1
vn 0 0 1
vn 0 0 1
vn 0 0 1
vn 0 0 1
vn 0 0 1
vn 0 0 1
vn 0 0 1
vn 0 0 1
vn 0 0 1
vn 0 0 1
vn 0 0 1
vn 0 0 1
vn 0 0 1
vn -1 0 0
vn -1 0 0
vn -1 0 0
vn -1 0 0
vn -1 0 0
vn -1 0 0
vn -1 0 0
vn -1 0 0
vn -1 0 0
vn -1 0 0
vn -1 0 0
vn -1 0 0
vn -1 0 0
vn -1 0 0
vn -1 0 0
vn -1 0 0
vn -1 0 0
vn -1 0 0
vn -1 0 0
vn -1 0 0
vn -1 0 0
vn -1 0 0
vn -1 0 0
vn -1 0 0
vn -1 0 0
vn -1 0 0
vn -1 0 0
vn -1 0 0
vn 0 1 0
vn 0 1 0
vn 0 1 0
vn 0 1 0
vn 0 1 0
vn 0 1 0
vn 0 1 0
vn 0 1 0
vn 0 1 0
vn 0 1 0
vn 0 1 0
vn 0 1 0
vn 0 1 0
vn 0 1 0
vn 1 0 0
vn 1 0 0
vn 1 0 0
vn 1 0 0
vn 1 0 0
vn 1 0 0
vn 1 0 0
vn 1 0 0
vn 1 0 0
vn 1 0 0
vn 1 0 0
vn 1 0 0
vn 1 0 0
vn 1 0 0
vn 1 0 0
vn 1 0 0
vn 1 0 0
vn 1 0 0
vn 1 0 0
vn 1 0 0
vn 1 0 0
vn 1 0 0
vn 1 0 0
vn 1 0 0
vn 1 0 0
vn 1 0 0
vn 1 0 0
vn 1 0 0
vn 0 -1 0
vn 0 -1 0
vn 0 -1 0
vn 0 -1 0
vn 0 -1 0
vn 0 -1 0
vn 0 -1 0
vn 0 -1 0
vn 0 -1 0
vn 0 -1 0
vn 0 -1 0
vn 0 -1 0
vn 0 -1 0
vn 0 -1 0
f 75/75/75 47/47/47 76/76/76 77/77/77 32/32/32 35/35/35 36/36/36 37/37/37 38/38/38 39/39/39 40/40/40 41/41/41 42/42/42 43/43/43 44/44/44 45/45/45 46/46/46 31/31/31 55/55/55 56/56/56 48/48/48 57/57/57 58/58/58 33/33/33 61/61/61 62/62/62 63/63/63 64/64/64 65/65/65 66/66/66 67/67/67 68/68/68 69/69/69 70/70/70 71/71/71 72/72/72 34/34/34 74/74/74
f 116/116/116 115/115/115 114/114/114 113/113/113 112/112/112 111/111/111 110/110/110 109/109/109 108/108/108 80/80/80 105/105/105 104/104/104 95/95/95 103/103/103 102/102/102 78/78/78 93/93/93 92/92/92 91/91/91 90/90/90 89/89/89 88/88/88 87/87/87 86/86/86 85/85/85 84/84/84 83/83/83 82/82/82 79/79/79 124/124/124 123/123/123 94/94/94 122/122/122 121/121/121 81/81/81 119/119/119 118/118/118 117/117/117
f 140/140/140 126/126/126 125/125/125 141/141/141 142/142/142 143/143/143 144/144/144 145/145/145 146/146/146 147/147/147 148/148/148 149/149/149 150/150/150 151/151/151 152/152/152 127/127/127 128/128/128 129/129/129 130/130/130 131/131/131 132/132/132 133/133/133 134/134/134 135/135/135 136/136/136 137/137/137 138/138/138 139/139/139
f 153/153/153 163/163/163 164/164/164 155/155/155 165/165/165 166/166/166 157/157/157 158/158/158 159/159/159 160/160/160 156/156/156 161/161/161 162/162/162 154/154/154
f 182/182/182 168/168/168 167/167/167 183/183/183 184/184/184 185/185/185 186/186/186 187/187/187 188/188/188 189/189/189 190/190/190 191/191/191 192/192/192 193/193/193 194/194/194 169/169/169 170/170/170 171/171/171 172/172/172 173/173/173 174/174/174 175/175/175 176/176/176 177/177/177 178/178/178 179/179/179 180/180/180 181/181/181
f 204/204/204 196/196/196 195/195/195 205/205/205 206/206/206 197/197/197 207/207/207 208/208/208 199/199/199 200/200/200 201/201/201 202/202/202 198/198/198 203/203/203
usemtl diffuse_Black
v 10 0 0
v 16 0 0
v 16 13 0
v 10 13 0
cstype bspline
deg 1
curv 0 38 209 210 211 212 209
parm u 0 0 6 19 25 38 38
end
