# Rhino

mtllib Building_3.mtl
usemtl diffuse_Black
v 20 8 0
v 20 0 0
v 32 8 0
v 32 0 0
v 20 1 0
v 20 2 0
v 20 3 0
v 20 4 0
v 20 5 0
v 20 6 0
v 20 7 0
v 32 4 0
v 26 4 0
v 26 2 0
v 23 4 0
v 23 2 0
v 26 6 0
v 23 6 0
v 21.090909957885742 8 0
v 22.181818008422852 8 0
v 23.272727966308594 8 0
v 24.363636016845703 8 0
v 25.454545974731445 8 0
v 26.545454025268555 8 0
v 27.636363983154297 8 0
v 28.727272033691406 8 0
v 29.818181991577148 8 0
v 30.909090042114258 8 0
v 32 6 0
v 29 4 0
v 29 6 0
v 32 7 0
v 32 5 0
v 32 3 0
v 32 2 0
v 32 1 0
v 29 2 0
v 30.909090042114258 0 0
v 29.818181991577148 0 0
v 28.727272033691406 0 0
v 27.636363983154297 0 0
v 26.545454025268555 0 0
v 25.454545974731445 0 0
v 24.363636016845703 0 0
v 23.272727966308594 0 0
v 22.181818008422852 0 0
v 21.090909957885742 0 0
v 20 8 -0.25
v 20 0 -0.25
v 32 8 -0.25
v 32 0 -0.25
v 20 1 -0.25
v 20 2 -0.25
v 20 3 -0.25
v 20 4 -0.25
v 20 5 -0.25
v 20 6 -0.25
v 20 7 -0.25
v 32 4 -0.25
v 26 4 -0.25
v 26 2 -0.25
v 23 4 -0.25
v 23 2 -0.25
v 26 6 -0.25
v 23 6 -0.25
v 21.090909957885742 8 -0.25
v 22.181818008422852 8 -0.25
v 23.272727966308594 8 -0.25
v 24.363636016845703 8 -0.25
v 25.454545974731445 8 -0.25
v 26.545454025268555 8 -0.25
v 27.636363983154297 8 -0.25
v 28.727272033691406 8 -0.25
v 29.818181991577148 8 -0.25
v 30.909090042114258 8 -0.25
v 32 6 -0.25
v 29 4 -0.25
v 29 6 -0.25
v 32 7 -0.25
v 32 5 -0.25
v 32 3 -0.25
v 32 2 -0.25
v 32 1 -0.25
v 29 2 -0.25
v 30.909090042114258 0 -0.25
v 29.818181991577148 0 -0.25
v 28.727272033691406 0 -0.25
v 27.636363983154297 0 -0.25
v 26.545454025268555 0 -0.25
v 25.454545974731445 0 -0.25
v 24.363636016845703 0 -0.25
v 23.272727966308594 0 -0.25
v 22.181818008422852 0 -0.25
v 21.090909957885742 0 -0.25
v 20 0 0
v 20 0 -0.25
v 20 4 0
v 20 4 -0.25
v 20 8 0
v 20 8 -0.25
v 20 1 0
v 20 2 0
v 20 3 0
v 20 5 0
v 20 6 0
v 20 7 0
v 20 7 -0.25
v 20 6 -0.25
v 20 5 -0.25
v 20 3 -0.25
v 20 2 -0.25
v 20 1 -0.25
v 20 8 0
v 20 8 -0.25
v 32 8 0
v 32 8 -0.25
v 21.090909957885742 8 0
v 22.181818008422852 8 0
v 23.272727966308594 8 0
v 24.363636016845703 8 0
v 25.454545974731445 8 0
v 26.545454025268555 8 0
v 27.636363983154297 8 0
v 28.727272033691406 8 0
v 29.818181991577148 8 0
v 30.909090042114258 8 0
v 30.909090042114258 8 -0.25
v 29.818181991577148 8 -0.25
v 28.727272033691406 8 -0.25
v 27.636363983154297 8 -0.25
v 26.545454025268555 8 -0.25
v 25.454545974731445 8 -0.25
v 24.363636016845703 8 -0.25
v 23.272727966308594 8 -0.25
v 22.181818008422852 8 -0.25
v 21.090909957885742 8 -0.25
v 32 8 0
v 32 8 -0.25
v 32 4 0
v 32 4 -0.25
v 32 0 0
v 32 0 -0.25
v 32 7 0
v 32 6 0
v 32 5 0
v 32 3 0
v 32 2 0
v 32 1 0
v 32 1 -0.25
v 32 2 -0.25
v 32 3 -0.25
v 32 5 -0.25
v 32 6 -0.25
v 32 7 -0.25
v 32 0 0
v 32 0 -0.25
v 20 0 0
v 20 0 -0.25
v 30.909090042114258 0 0
v 29.818181991577148 0 0
v 28.727272033691406 0 0
v 27.636363983154297 0 0
v 26.545454025268555 0 0
v 25.454545974731445 0 0
v 24.363636016845703 0 0
v 23.272727966308594 0 0
v 22.181818008422852 0 0
v 21.090909957885742 0 0
v 21.090909957885742 0 -0.25
v 22.181818008422852 0 -0.25
v 23.272727966308594 0 -0.25
v 24.363636016845703 0 -0.25
v 25.454545974731445 0 -0.25
v 26.545454025268555 0 -0.25
v 27.636363983154297 0 -0.25
v 28.727272033691406 0 -0.25
v 29.818181991577148 0 -0.25
v 30.909090042114258 0 -0.25
vt 0.0625 0.5
vt 0.0625 0.99853515625
vt 0.81103515625 0.5
vt 0.81103515625 0.99853515625
vt 0.0625 0.93621826171875
vt 0.0625 0.8739013671875
vt 0.0625 0.81158447265625
vt 0.0625 0.749267578125
vt 0.0625 0.68695068359375
vt 0.0625 0.6246337890625
vt 0.0625 0.56231689453125
vt 0.81103515625 0.749267578125
vt 0.436767578125 0.749267578125
vt 0.436767578125 0.8739013671875
vt 0.2496337890625 0.749267578125
vt 0.2496337890625 0.8739013671875
vt 0.436767578125 0.6246337890625
vt 0.2496337890625 0.6246337890625
vt 0.13054865598678589 0.5
vt 0.19859731197357178 0.5
vt 0.26664596796035767 0.5
vt 0.33469462394714355 0.5
vt 0.40274325013160706 0.5
vt 0.47079190611839294 0.5
vt 0.53884053230285645 0.5
vt 0.60688924789428711 0.5
vt 0.67493784427642822 0.5
vt 0.74298650026321411 0.5
vt 0.81103515625 0.6246337890625
vt 0.6239013671875 0.749267578125
vt 0.6239013671875 0.6246337890625
vt 0.81103515625 0.56231689453125
vt 0.81103515625 0.68695068359375
vt 0.81103515625 0.81158447265625
vt 0.81103515625 0.8739013671875
vt 0.81103515625 0.93621826171875
vt 0.6239013671875 0.8739013671875
vt 0.74298650026321411 0.99853515625
vt 0.67493784427642822 0.99853515625
vt 0.60688924789428711 0.99853515625
vt 0.53884053230285645 0.99853515625
vt 0.47079190611839294 0.99853515625
vt 0.40274325013160706 0.99853515625
vt 0.33469462394714355 0.99853515625
vt 0.26664596796035767 0.99853515625
vt 0.19859731197357178 0.99853515625
vt 0.13054865598678589 0.99853515625
vt 0.0625 0
vt 0.0625 0.49853515625
vt 0.81103515625 0
vt 0.81103515625 0.49853515625
vt 0.0625 0.43621826171875
vt 0.0625 0.3739013671875
vt 0.0625 0.31158447265625
vt 0.0625 0.249267578125
vt 0.0625 0.18695068359375
vt 0.0625 0.1246337890625
vt 0.0625 0.06231689453125
vt 0.81103515625 0.249267578125
vt 0.436767578125 0.249267578125
vt 0.436767578125 0.3739013671875
vt 0.2496337890625 0.249267578125
vt 0.2496337890625 0.3739013671875
vt 0.436767578125 0.1246337890625
vt 0.2496337890625 0.1246337890625
vt 0.13054865598678589 0
vt 0.19859731197357178 0
vt 0.26664596796035767 0
vt 0.33469462394714355 0
vt 0.40274325013160706 0
vt 0.47079190611839294 0
vt 0.53884053230285645 0
vt 0.60688924789428711 0
vt 0.67493784427642822 0
vt 0.74298650026321411 0
vt 0.81103515625 0.1246337890625
vt 0.6239013671875 0.249267578125
vt 0.6239013671875 0.1246337890625
vt 0.81103515625 0.06231689453125
vt 0.81103515625 0.18695068359375
vt 0.81103515625 0.31158447265625
vt 0.81103515625 0.3739013671875
vt 0.81103515625 0.43621826171875
vt 0.6239013671875 0.3739013671875
vt 0.74298650026321411 0.49853515625
vt 0.67493784427642822 0.49853515625
vt 0.60688924789428711 0.49853515625
vt 0.53884053230285645 0.49853515625
vt 0.47079190611839294 0.49853515625
vt 0.40274325013160706 0.49853515625
vt 0.33469462394714355 0.49853515625
vt 0.26664596796035767 0.49853515625
vt 0.19859731197357178 0.49853515625
vt 0.13054865598678589 0.49853515625
vt 0.02978515625 0
vt 0.015625 0
vt 0.02978515625 0.25
vt 0.015625 0.25
vt 0.02978515625 0.5
vt 0.015625 0.5
vt 0.02978515625 0.0625
vt 0.02978515625 0.125
vt 0.02978515625 0.1875
vt 0.02978515625 0.3125
vt 0.02978515625 0.375
vt 0.02978515625 0.4375
vt 0.015625 0.4375
vt 0.015625 0.375
vt 0.015625 0.3125
vt 0.015625 0.1875
vt 0.015625 0.125
vt 0.015625 0.0625
vt 0.06103515625 0
vt 0.046875 0
vt 0.06103515625 0.75
vt 0.046875 0.75
vt 0.06103515625 0.068181820213794708
vt 0.06103515625 0.13636364042758942
vt 0.06103515625 0.20454546809196472
vt 0.06103515625 0.27272728085517883
vt 0.06103515625 0.34090909361839294
vt 0.06103515625 0.40909093618392944
vt 0.06103515625 0.47727271914482117
vt 0.06103515625 0.54545456171035767
vt 0.06103515625 0.61363637447357178
vt 0.06103515625 0.68181818723678589
vt 0.046875 0.68181818723678589
vt 0.046875 0.61363637447357178
vt 0.046875 0.54545456171035767
vt 0.046875 0.47727271914482117
vt 0.046875 0.40909093618392944
vt 0.046875 0.34090909361839294
vt 0.046875 0.27272728085517883
vt 0.046875 0.20454546809196472
vt 0.046875 0.13636364042758942
vt 0.046875 0.068181820213794708
vt 0.01416015625 0
vt 0 0
vt 0.01416015625 0.25
vt 0 0.25
vt 0.01416015625 0.5
vt 0 0.5
vt 0.01416015625 0.0625
vt 0.01416015625 0.125
vt 0.01416015625 0.1875
vt 0.01416015625 0.3125
vt 0.01416015625 0.375
vt 0.01416015625 0.4375
vt 0 0.4375
vt 0 0.375
vt 0 0.3125
vt 0 0.1875
vt 0 0.125
vt 0 0.0625
vt 0.04541015625 0
vt 0.03125 0
vt 0.04541015625 0.75
vt 0.03125 0.75
vt 0.04541015625 0.068181820213794708
vt 0.04541015625 0.13636364042758942
vt 0.04541015625 0.20454546809196472
vt 0.04541015625 0.27272728085517883
vt 0.04541015625 0.34090909361839294
vt 0.04541015625 0.40909093618392944
vt 0.04541015625 0.47727271914482117
vt 0.04541015625 0.54545456171035767
vt 0.04541015625 0.61363637447357178
vt 0.04541015625 0.68181818723678589
vt 0.03125 0.68181818723678589
vt 0.03125 0.61363637447357178
vt 0.03125 0.54545456171035767
vt 0.03125 0.47727271914482117
vt 0.03125 0.40909093618392944
vt 0.03125 0.34090909361839294
vt 0.03125 0.27272728085517883
vt 0.03125 0.20454546809196472
vt 0.03125 0.13636364042758942
vt 0.03125 0.068181820213794708
vn 0 0 1
vn 0 0 1
vn 0 0 1
vn 0 0 1
vn 0 0 1
vn 0 0 1
vn 0 0 1
vn 0 0 1
vn 0 0 1
vn 0 0 1
vn 0 0 1
vn 0 0 1
vn 0 0 1
vn 0 0 1
vn 0 0 1
vn 0 0 1
vn 0 0 1
vn 0 0 1
vn 0 0 1
vn 0 0 1
vn 0 0 1
vn 0 0 1
vn 0 0 1
vn 0 0 1
vn 0 0 1
vn 0 0 1
vn 0 0 1
vn 0 0 1
vn 0 0 1
vn 0 0 1
vn 0 0 1
vn 0 0 1
vn 0 0 1
vn 0 0 1
vn 0 0 1
vn 0 0 1
vn 0 0 1
vn 0 0 1
vn 0 0 1
vn 0 0 1
vn 0 0 1
vn 0 0 1
vn 0 0 1
vn 0 0 1
vn 0 0 1
vn 0 0 1
vn 0 0 1
vn 0 0 -1
vn 0 0 -1
vn 0 0 -1
vn 0 0 -1
vn 0 0 -1
vn 0 0 -1
vn 0 0 -1
vn 0 0 -1
vn 0 0 -1
vn 0 0 -1
vn 0 0 -1
vn 0 0 -1
vn 0 0 -1
vn 0 0 -1
vn 0 0 -1
vn 0 0 -1
vn 0 0 -1
vn 0 0 -1
vn 0 0 -1
vn 0 0 -1
vn 0 0 -1
vn 0 0 -1
vn 0 0 -1
vn 0 0 -1
vn 0 0 -1
vn 0 0 -1
vn 0 0 -1
vn 0 0 -1
vn 0 0 -1
vn 0 0 -1
vn 0 0 -1
vn 0 0 -1
vn 0 0 -1
vn 0 0 -1
vn 0 0 -1
vn 0 0 -1
vn 0 0 -1
vn 0 0 -1
vn 0 0 -1
vn 0 0 -1
vn 0 0 -1
vn 0 0 -1
vn 0 0 -1
vn 0 0 -1
vn 0 0 -1
vn 0 0 -1
vn 0 0 -1
vn -1 0 0
vn -1 0 0
vn -1 0 0
vn -1 0 0
vn -1 0 0
vn -1 0 0
vn -1 0 0
vn -1 0 0
vn -1 0 0
vn -1 0 0
vn -1 0 0
vn -1 0 0
vn -1 0 0
vn -1 0 0
vn -1 0 0
vn -1 0 0
vn -1 0 0
vn -1 0 0
vn 0 1 0
vn 0 1 0
vn 0 1 0
vn 0 1 0
vn 0 1 0
vn 0 1 0
vn 0 1 0
vn 0 1 0
vn 0 1 0
vn 0 1 0
vn 0 1 0
vn 0 1 0
vn 0 1 0
vn 0 1 0
vn 0 1 0
vn 0 1 0
vn 0 1 0
vn 0 1 0
vn 0 1 0
vn 0 1 0
vn 0 1 0
vn 0 1 0
vn 0 1 0
vn 0 1 0
vn 1 0 0
vn 1 0 0
vn 1 0 0
vn 1 0 0
vn 1 0 0
vn 1 0 0
vn 1 0 0
vn 1 0 0
vn 1 0 0
vn 1 0 0
vn 1 0 0
vn 1 0 0
vn 1 0 0
vn 1 0 0
vn 1 0 0
vn 1 0 0
vn 1 0 0
vn 1 0 0
vn 0 -1 0
vn 0 -1 0
vn 0 -1 0
vn 0 -1 0
vn 0 -1 0
vn 0 -1 0
vn 0 -1 0
vn 0 -1 0
vn 0 -1 0
vn 0 -1 0
vn 0 -1 0
vn 0 -1 0
vn 0 -1 0
vn 0 -1 0
vn 0 -1 0
vn 0 -1 0
vn 0 -1 0
vn 0 -1 0
vn 0 -1 0
vn 0 -1 0
vn 0 -1 0
vn 0 -1 0
vn 0 -1 0
vn 0 -1 0
f 34/34/34 12/12/12 33/33/33 29/29/29 32/32/32 3/3/3 28/28/28 27/27/27 26/26/26 25/25/25 24/24/24 23/23/23 22/22/22 21/21/21 20/20/20 19/19/19 1/1/1 11/11/11 10/10/10 9/9/9 8/8/8 7/7/7 6/6/6 5/5/5 2/2/2 47/47/47 46/46/46 45/45/45 44/44/44 43/43/43 42/42/42 41/41/41 40/40/40 39/39/39 38/38/38 4/4/4 36/36/36 35/35/35
f 87/87/87 88/88/88 89/89/89 90/90/90 91/91/91 92/92/92 93/93/93 94/94/94 49/49/49 52/52/52 53/53/53 54/54/54 55/55/55 56/56/56 57/57/57 58/58/58 48/48/48 66/66/66 67/67/67 68/68/68 69/69/69 70/70/70 71/71/71 72/72/72 73/73/73 74/74/74 75/75/75 50/50/50 79/79/79 76/76/76 80/80/80 59/59/59 81/81/81 82/82/82 83/83/83 51/51/51 85/85/85 86/86/86
f 112/112/112 96/96/96 95/95/95 101/101/101 102/102/102 103/103/103 97/97/97 104/104/104 105/105/105 106/106/106 99/99/99 100/100/100 107/107/107 108/108/108 109/109/109 98/98/98 110/110/110 111/111/111
f 113/113/113 117/117/117 118/118/118 119/119/119 120/120/120 121/121/121 122/122/122 123/123/123 124/124/124 125/125/125 126/126/126 115/115/115 116/116/116 127/127/127 128/128/128 129/129/129 130/130/130 131/131/131 132/132/132 133/133/133 134/134/134 135/135/135 136/136/136 114/114/114
f 154/154/154 138/138/138 137/137/137 143/143/143 144/144/144 145/145/145 139/139/139 146/146/146 147/147/147 148/148/148 141/141/141 142/142/142 149/149/149 150/150/150 151/151/151 140/140/140 152/152/152 153/153/153
f 155/155/155 159/159/159 160/160/160 161/161/161 162/162/162 163/163/163 164/164/164 165/165/165 166/166/166 167/167/167 168/168/168 157/157/157 158/158/158 169/169/169 170/170/170 171/171/171 172/172/172 173/173/173 174/174/174 175/175/175 176/176/176 177/177/177 178/178/178 156/156/156
usemtl diffuse_Black
v 26.5 5 -0.25
v 26.5 2.5 -0.25
v 26.5 0 -0.25
v 26.5 0 -1.625
v 26.5 0 -3
v 26.5 2.5 -1.625
v 25.5 5 -0.25
v 25.5 2.5 -0.25
v 25.5 0 -0.25
v 25.5 0 -1.625
v 25.5 0 -3
v 25.5 2.5 -1.625
v 25.5 5 -0.25
v 26.5 5 -0.25
v 25.5 0 -0.25
v 26.5 0 -0.25
v 26.5 2.5 -0.25
v 25.5 2.5 -0.25
v 25.5 0 -0.25
v 26.5 0 -0.25
v 25.5 0 -3
v 26.5 0 -3
v 26.5 0 -1.625
v 25.5 0 -1.625
v 25.5 0 -3
v 26.5 0 -3
v 25.5 5 -0.25
v 26.5 5 -0.25
v 26.5 2.5 -1.625
v 25.5 2.5 -1.625
vt 0.39892929792404175 0.99150723218917847
vt 0.39892929792404175 0.64011263847351074
vt 0.39892929792404175 0.28871804475784302
vt 0.59187322854995728 0.28871804475784302
vt 0.78481709957122803 0.28871804475784302
vt 0.59187322854995728 0.64011263847351074
vt 0.0038588782772421837 0.99150723218917847
vt 0.0038588782772421837 0.64011263847351074
vt 0.0038588782772421837 0.28871804475784302
vt 0.19680279493331909 0.28871804475784302
vt 0.38974669575691223 0.28871804475784302
vt 0.19680279493331909 0.64011263847351074
vt 0 0.14084507524967194
vt 0 0.28022530674934387
vt 0.70422536134719849 0.14084507524967194
vt 0.70422536134719849 0.28022530674934387
vt 0.35211268067359924 0.28022530674934387
vt 0.35211268067359924 0.14084507524967194
vt 0 0
vt 0 0.13938023149967194
vt 0.38732394576072693 0
vt 0.38732394576072693 0.13938023149967194
vt 0.19366197288036346 0.13938023149967194
vt 0.19366197288036346 0
vt 0.92952108383178711 0
vt 0.79014086723327637 0
vt 0.92952108383178711 0.80371212959289551
vt 0.79014086723327637 0.80371212959289551
vt 0.79014086723327637 0.40185606479644775
vt 0.92952108383178711 0.40185606479644775
vn 1 0 0
vn 1 0 0
vn 1 0 0
vn 1 0 0
vn 1 0 0
vn 1 0 0
vn -1 0 0
vn -1 0 0
vn -1 0 0
vn -1 0 0
vn -1 0 0
vn -1 0 0
vn 0 0 1
vn 0 0 1
vn 0 0 1
vn 0 0 1
vn 0 0 1
vn 0 0 1
vn 0 -1 0
vn 0 -1 0
vn 0 -1 0
vn 0 -1 0
vn 0 -1 0
vn 0 -1 0
vn 0 0.48191875219345093 -0.87621593475341797
vn 0 0.48191875219345093 -0.87621593475341797
vn 0 0.48191875219345093 -0.87621593475341797
vn 0 0.48191875219345093 -0.87621593475341797
vn 0 0.48191875219345093 -0.87621593475341797
vn 0 0.48191875219345093 -0.87621593475341797
f 180/180/180 181/181/181 182/182/182 183/183/183 184/184/184 179/179/179
f 188/188/188 187/187/187 186/186/186 185/185/185 190/190/190 189/189/189
f 192/192/192 191/191/191 196/196/196 193/193/193 194/194/194 195/195/195
f 198/198/198 197/197/197 202/202/202 199/199/199 200/200/200 201/201/201
f 204/204/204 203/203/203 208/208/208 205/205/205 206/206/206 207/207/207
